#!OML:ASF F:\VICON\USERDATA\INSTALL\rory3\rory3.ASF
:FULLY-SPECIFIED
:DEGREES
3320
root 0.0519788 16.8779 -0.153521 -10.3767 3.98 -7.20064
lowerback -0.0983997 0.5911 -2.88027
upperback 4.26486 0.889007 -0.543502
thorax 4.41909 0.34775 1.0865
lowerneck -6.31743 -11.6965 -16.9382
upperneck 30.2856 -20.8242 19.809
head 16.0629 -9.23156 7.66268
rclavicle 4.19933e-015 1.74931e-014
rhumerus 76.6617 -11.6762 -64.125
rradius 68.3655
rwrist 36.5452
rhand 54.5141 16.6864
rfingers 7.12502
rthumb 72.5829 31.6623
lclavicle 4.19933e-015 1.74931e-014
lhumerus -19.5704 3.26315 82.7774
lradius 8.87103
lwrist -14.8906
lhand 2.09894 30.4621
lfingers 7.12502
lthumb 27.5992 58.4582
rfemur 8.20824 2.69189 27.206
rtibia 19.8827
rfoot -19.2292 -9.03634
rtoes -23.4297
lfemur -0.658405 -10.2204 -11.6731
ltibia 34.9975
lfoot -23.3716 0.262325
ltoes -18.9036
3321
root 0.0475958 16.8759 -0.165075 -10.3641 4.02978 -7.15304
lowerback 0.0540607 0.62931 -3.01032
upperback 4.32406 0.938866 -0.537519
thorax 4.39085 0.36754 1.16568
lowerneck -6.3621 -11.7287 -17.1038
upperneck 30.1476 -20.8782 20.005
head 16.0833 -9.25627 7.75862
rclavicle -5.8393e-015 6.36111e-015
rhumerus 76.5589 -11.6328 -64.1791
rradius 68.1379
rwrist 36.612
rhand 54.4524 16.8262
rfingers 7.12502
rthumb 72.552 31.6322
lclavicle -5.8393e-015 6.36111e-015
lhumerus -19.5527 3.26237 82.7909
lradius 9.18051
lwrist -14.875
lhand 2.37913 30.7561
lfingers 7.12502
lthumb 27.8671 58.709
rfemur 8.06956 2.66162 27.159
rtibia 20.0433
rfoot -19.2402 -9.09924
rtoes -23.0126
lfemur -0.766666 -10.1859 -11.6894
ltibia 35.0439
lfoot -23.3091 0.180806
ltoes -18.8189
3322
root 0.0419095 16.8759 -0.178988 -10.3236 4.07807 -7.27275
lowerback 0.211002 0.633983 -3.04783
upperback 4.35624 0.937636 -0.453179
thorax 4.33362 0.364358 1.27183
lowerneck -6.42279 -11.7784 -17.0919
upperneck 29.9888 -20.8924 19.9617
head 16.0102 -9.2604 7.71315
rclavicle -6.52262e-015 -1.59028e-015
rhumerus 76.4693 -11.5138 -64.2142
rradius 67.9349
rwrist 36.6901
rhand 54.3506 16.8448
rfingers 7.12502
rthumb 72.5005 31.3716
lclavicle -6.52262e-015 -1.59028e-015
lhumerus -19.4736 3.35689 82.8224
lradius 9.30083
lwrist -14.8954
lhand 2.47479 30.8878
lfingers 7.12502
lthumb 27.9586 58.8259
rfemur 7.89577 2.65346 27.31
rtibia 20.1505
rfoot -19.2175 -9.14496
rtoes -22.442
lfemur -0.956614 -10.2234 -11.5041
ltibia 35.1323
lfoot -23.2575 -0.0884758
ltoes -17.4875
3323
root 0.0367618 16.8784 -0.191733 -10.2246 4.14928 -7.35361
lowerback 0.341138 0.634785 -3.06434
upperback 4.36347 0.932502 -0.404677
thorax 4.26656 0.36116 1.3293
lowerneck -6.44023 -11.8724 -17.0261
upperneck 29.7471 -20.9706 19.9086
head 15.8934 -9.29072 7.63308
rclavicle 5.34234e-015 3.02153e-014
rhumerus 76.2614 -11.3962 -64.2628
rradius 67.8863
rwrist 36.7294
rhand 54.4277 16.8469
rfingers 7.12502
rthumb 72.5395 31.5849
lclavicle 5.34234e-015 3.02153e-014
lhumerus -19.3865 3.4233 82.8035
lradius 9.37585
lwrist -14.8552
lhand 2.36039 30.8249
lfingers 7.12502
lthumb 27.8492 58.7808
rfemur 7.69845 2.64373 27.4082
rtibia 20.2223
rfoot -19.1556 -9.18913
rtoes -22.4465
lfemur -1.23155 -10.2015 -11.3468
ltibia 35.2444
lfoot -23.2039 -0.0321405
ltoes -18.4485
3324
root 0.0343454 16.8805 -0.204346 -10.1125 4.20266 -7.49716
lowerback 0.436749 0.637464 -2.97356
upperback 4.39704 0.929448 -0.349323
thorax 4.24756 0.361876 1.33451
lowerneck -6.54469 -11.9299 -16.9922
upperneck 29.5414 -21.0169 19.9491
head 15.8307 -9.29741 7.61069
rclavicle -8.59744e-015 2.22639e-014
rhumerus 76.1008 -11.3122 -64.3488
rradius 67.8433
rwrist 36.7578
rhand 54.5355 16.6365
rfingers 7.12502
rthumb 72.5936 31.6714
lclavicle -8.59744e-015 2.22639e-014
lhumerus -19.2587 3.49974 82.8351
lradius 9.50649
lwrist -14.8444
lhand 2.42103 30.9884
lfingers 7.12502
lthumb 27.9072 58.9349
rfemur 7.49164 2.6044 27.5542
rtibia 20.2595
rfoot -19.1255 -9.1781
rtoes -22.2301
lfemur -1.52288 -10.184 -11.1324
ltibia 35.3632
lfoot -23.1189 0.204127
ltoes -20.2506
3325
root 0.0326479 16.8797 -0.216912 -10.0873 4.26309 -7.49489
lowerback 0.586801 0.657034 -2.98644
upperback 4.49857 0.953549 -0.372502
thorax 4.26768 0.372743 1.31721
lowerneck -6.72355 -11.978 -16.9906
upperneck 29.3506 -21.0732 20.0874
head 15.8209 -9.29938 7.63582
rclavicle 1.94498e-014 -3.18055e-015
rhumerus 76.0472 -11.2219 -64.6201
rradius 67.748
rwrist 37.0693
rhand 54.5973 16.7396
rfingers 7.12502
rthumb 72.6244 31.9457
lclavicle 1.94498e-014 -3.18055e-015
lhumerus -19.051 3.5297 82.8058
lradius 9.61382
lwrist -14.873
lhand 2.47912 30.9994
lfingers 7.12502
lthumb 27.9627 58.9368
rfemur 7.37097 2.50552 27.5261
rtibia 20.3098
rfoot -19.1001 -9.12713
rtoes -22.2588
lfemur -1.66056 -10.1949 -11.106
ltibia 35.4539
lfoot -23.1237 -0.144509
ltoes -18.4624
3326
root 0.030957 16.8781 -0.228761 -10.083 4.33029 -7.50039
lowerback 0.754946 0.697868 -2.96246
upperback 4.56461 1.00512 -0.429386
thorax 4.24027 0.400472 1.24473
lowerneck -6.76255 -12.0212 -16.9748
upperneck 29.1189 -21.162 20.3012
head 15.78 -9.31889 7.69084
rclavicle -9.90196e-015 1.74931e-014
rhumerus 75.8609 -11.1946 -64.8425
rradius 67.5963
rwrist 37.4603
rhand 54.3665 16.8837
rfingers 7.12502
rthumb 72.5086 31.4539
lclavicle -9.90196e-015 1.74931e-014
lhumerus -18.9373 3.45418 82.7465
lradius 9.72177
lwrist -14.9105
lhand 2.44697 30.9385
lfingers 7.12502
lthumb 27.932 58.8809
rfemur 7.27576 2.42159 27.5077
rtibia 20.3676
rfoot -19.0942 -9.12206
rtoes -22.3043
lfemur -1.77164 -10.2039 -11.0844
ltibia 35.5299
lfoot -23.1558 -0.359948
ltoes -17.7131
3327
root 0.0310245 16.8809 -0.239649 -9.99641 4.41296 -7.45667
lowerback 0.857088 0.725012 -2.9891
upperback 4.5803 1.04005 -0.474714
thorax 4.19773 0.418397 1.21246
lowerneck -6.73226 -12.0498 -17.0221
upperneck 28.925 -21.2302 20.5057
head 15.7438 -9.34217 7.76441
rclavicle -1.18153e-014 -1.59028e-014
rhumerus 75.6222 -11.1328 -64.9505
rradius 67.5112
rwrist 37.7852
rhand 54.2357 16.88
rfingers 7.12502
rthumb 72.442 31.0937
lclavicle -1.18153e-014 -1.59028e-014
lhumerus -18.8989 3.4125 82.694
lradius 9.81501
lwrist -14.9908
lhand 2.25374 30.6499
lfingers 7.12502
lthumb 27.7472 58.6222
rfemur 7.10332 2.32204 27.4117
rtibia 20.4318
rfoot -19.1341 -9.02298
rtoes -22.1466
lfemur -1.96777 -10.2378 -11.1284
ltibia 35.5946
lfoot -23.1034 -0.167696
ltoes -18.859
3328
root 0.0305993 16.8823 -0.251078 -9.91777 4.49229 -7.44885
lowerback 0.944558 0.76485 -2.98609
upperback 4.62702 1.09215 -0.502128
thorax 4.19531 0.444774 1.18289
lowerneck -6.73311 -12.1304 -17.0891
upperneck 28.7488 -21.3575 20.6595
head 15.7345 -9.39425 7.80227
rclavicle 3.47873e-015 1.59028e-015
rhumerus 75.5056 -11.1201 -65.1015
rradius 67.3709
rwrist 38.0423
rhand 54.2451 16.8289
rfingers 7.12502
rthumb 72.4468 31.0682
lclavicle 3.47873e-015 1.59028e-015
lhumerus -18.8389 3.33833 82.6542
lradius 10.0667
lwrist -15.0418
lhand 2.21601 30.6982
lfingers 7.12502
lthumb 27.7112 58.6764
rfemur 6.9314 2.24034 27.365
rtibia 20.5047
rfoot -19.1453 -8.95225
rtoes -21.9901
lfemur -2.16413 -10.2501 -11.1169
ltibia 35.6502
lfoot -22.9826 -0.171458
ltoes -19.3652
3329
root 0.0266291 16.8825 -0.264893 -9.84921 4.53835 -7.54966
lowerback 1.08802 0.805433 -2.95141
upperback 4.66394 1.13966 -0.450708
thorax 4.15004 0.469117 1.21576
lowerneck -6.71069 -12.2069 -17.1706
upperneck 28.5157 -21.4483 20.773
head 15.6751 -9.43752 7.82778
rclavicle 7.62836e-015 -4.45278e-014
rhumerus 75.4616 -11.0913 -65.2096
rradius 67.1402
rwrist 38.2619
rhand 54.2884 16.9354
rfingers 7.12502
rthumb 72.4689 31.2926
lclavicle 7.62836e-015 -4.45278e-014
lhumerus -18.7091 3.31678 82.6535
lradius 10.1613
lwrist -15.0461
lhand 2.42524 30.9522
lfingers 7.12502
lthumb 27.9112 58.898
rfemur 6.74424 2.19585 27.4779
rtibia 20.5907
rfoot -19.038 -9.0165
rtoes -22.2564
lfemur -2.37449 -10.2143 -10.9464
ltibia 35.6996
lfoot -22.9657 -0.459478
ltoes -18.113
3330
root 0.0229431 16.8849 -0.278125 -9.75483 4.64053 -7.47234
lowerback 1.20044 0.834166 -3.08899
upperback 4.68904 1.17651 -0.456583
thorax 4.10916 0.482905 1.28583
lowerneck -6.67118 -12.262 -17.2618
upperneck 28.303 -21.5055 20.874
head 15.6117 -9.46957 7.85993
rclavicle -9.69075e-015 -7.95139e-015
rhumerus 75.3017 -11.0568 -65.3614
rradius 67.0165
rwrist 38.4522
rhand 54.3216 16.9609
rfingers 7.12502
rthumb 72.4858 31.4085
lclavicle -9.69075e-015 -7.95139e-015
lhumerus -18.596 3.30133 82.6507
lradius 10.1064
lwrist -15.0328
lhand 2.41183 30.7464
lfingers 7.12502
lthumb 27.8984 58.6943
rfemur 6.53665 2.16179 27.3872
rtibia 20.6967
rfoot -18.9787 -9.06788
rtoes -22.3615
lfemur -2.59152 -10.2076 -10.9958
ltibia 35.7475
lfoot -22.9329 -0.615885
ltoes -17.7116
3331
root 0.0201634 16.8862 -0.289267 -9.65161 4.73256 -7.47824
lowerback 1.26889 0.838582 -3.12683
upperback 4.72636 1.18174 -0.472371
thorax 4.10895 0.484132 1.28998
lowerneck -6.70373 -12.3012 -17.202
upperneck 28.1156 -21.5352 20.9047
head 15.5328 -9.47342 7.83749
rclavicle -6.85807e-015 1.74931e-014
rhumerus 75.1503 -11.0072 -65.5949
rradius 66.9114
rwrist 38.5941
rhand 54.3595 16.8774
rfingers 7.12502
rthumb 72.5051 31.4286
lclavicle -6.85807e-015 1.74931e-014
lhumerus -18.4581 3.32011 82.5659
lradius 10.0593
lwrist -15.0672
lhand 2.27563 30.473
lfingers 7.12502
lthumb 27.7682 58.442
rfemur 6.30982 2.0496 27.3615
rtibia 20.8081
rfoot -18.9862 -9.0382
rtoes -21.9681
lfemur -2.80398 -10.2334 -10.9571
ltibia 35.7995
lfoot -22.8239 -0.540955
ltoes -18.6489
